<svg xmlns="http://www.w3.org/2000/svg" viewBox="0 0 22.5 20.5"><defs><style>.cls-1{fill:#e0c138;}</style></defs><title>AUTO</title><g id="Capa_2" data-name="Capa 2"><g id="Capa_1-2" data-name="Capa 1"><path class="cls-1" d="M20.55,8.5H2a.74.74,0,0,1-.62-.33.76.76,0,0,1-.08-.7l2.8-7A.76.76,0,0,1,4.75,0h13a.76.76,0,0,1,.7.47l2.8,7a.76.76,0,0,1-.08.7A.74.74,0,0,1,20.55,8.5ZM3.06,7H19.44l-2.2-5.5h-12Z"/><path class="cls-1" d="M21.75,11.5H.75a.74.74,0,0,1-.62-.33.76.76,0,0,1-.08-.7l1.2-3A.76.76,0,0,1,2,7h18.6a.76.76,0,0,1,.7.47l1.2,3a.76.76,0,0,1-.08.7A.74.74,0,0,1,21.75,11.5ZM1.86,10H20.64L20,8.5H2.46Z"/><path class="cls-1" d="M21.75,17.5H.75A.76.76,0,0,1,0,16.75v-3A.76.76,0,0,1,.75,13h21a.76.76,0,0,1,.75.75v3A.76.76,0,0,1,21.75,17.5ZM1.5,16H21V14.5H1.5Z"/><path class="cls-1" d="M21.75,14.5H15.08a.74.74,0,0,1-.57-.27.76.76,0,0,1-.17-.6l.5-3a.75.75,0,0,1,.74-.63h6.17a.76.76,0,0,1,.75.75v3A.76.76,0,0,1,21.75,14.5ZM16,13h5V11.5H16.22Z"/><path class="cls-1" d="M6.42,14.5H.75A.76.76,0,0,1,0,13.75v-3A.76.76,0,0,1,.75,10H5.92a.75.75,0,0,1,.74.63l.5,3a.76.76,0,0,1-.17.6A.74.74,0,0,1,6.42,14.5ZM1.5,13h4l-.25-1.5H1.5Z"/><path class="cls-1" d="M15.08,14.5H6.42a.74.74,0,0,1-.74-.63l-.5-3a.72.72,0,0,1,.16-.6A.78.78,0,0,1,5.92,10h9.66a.78.78,0,0,1,.58.27.72.72,0,0,1,.16.6l-.5,3A.74.74,0,0,1,15.08,14.5Zm-8-1.5h7.4l.25-1.5H6.8Z"/><path class="cls-1" d="M21.75,20.5h-3a.76.76,0,0,1-.75-.75v-3a.76.76,0,0,1,.75-.75h3a.76.76,0,0,1,.75.75v3A.76.76,0,0,1,21.75,20.5ZM19.5,19H21V17.5H19.5Z"/><path class="cls-1" d="M3.75,20.5h-3A.76.76,0,0,1,0,19.75v-3A.76.76,0,0,1,.75,16h3a.76.76,0,0,1,.75.75v3A.76.76,0,0,1,3.75,20.5ZM1.5,19H3V17.5H1.5Z"/></g></g></svg>