<svg xmlns="http://www.w3.org/2000/svg" viewBox="0 0 23.5 15.5"><defs><style>.cls-1{fill:#e0c138;}</style></defs><title>CAMA</title><g id="Capa_2" data-name="Capa 2"><g id="Capa_1-2" data-name="Capa 1"><path class="cls-1" d="M22.75,15.5h-3a.76.76,0,0,1-.75-.75V13.5H4.5v1.25a.76.76,0,0,1-.75.75h-3A.76.76,0,0,1,0,14.75v-5A.76.76,0,0,1,.75,9H19V.75A.76.76,0,0,1,19.75,0h3a.76.76,0,0,1,.75.75v14A.76.76,0,0,1,22.75,15.5ZM20.5,14H22V1.5H20.5V9.75a.76.76,0,0,1-.75.75H1.5V14H3V12.75A.76.76,0,0,1,3.75,12h16a.76.76,0,0,1,.75.75Z"/><path class="cls-1" d="M19.75,10.5h-18A.76.76,0,0,1,1,9.75V7.06A3.06,3.06,0,0,1,4.06,4H19.75a.76.76,0,0,1,.75.75v5A.76.76,0,0,1,19.75,10.5ZM2.5,9H19V5.5H4.06A1.56,1.56,0,0,0,2.5,7.06Z"/><path class="cls-1" d="M19.75,5.5h-5A.76.76,0,0,1,14,4.75a3.06,3.06,0,0,1,3.06-3.06h2.69a.76.76,0,0,1,.75.75V4.75A.76.76,0,0,1,19.75,5.5ZM15.69,4H19V3.19H17.06A1.57,1.57,0,0,0,15.69,4Z"/></g></g></svg>