<svg xmlns="http://www.w3.org/2000/svg" viewBox="0 0 17.5 31.5"><defs><style>.cls-1{fill:#e0c138;}</style></defs><title>HOJA</title><g id="Capa_2" data-name="Capa 2"><g id="Capa_1-2" data-name="Capa 1"><path class="cls-1" d="M8.75,31.5A.76.76,0,0,1,8,30.75v-23a.75.75,0,0,1,1.5,0v23A.76.76,0,0,1,8.75,31.5Z"/><rect class="cls-1" x="7.2" y="15.25" width="10.61" height="1.5" transform="translate(-7.65 13.53) rotate(-45)"/><rect class="cls-1" x="7.51" y="10" width="8.49" height="1.5" transform="translate(-4.16 11.46) rotate(-45)"/><path class="cls-1" d="M8.75,25.5A8.6,8.6,0,0,1,0,17.07,21.81,21.81,0,0,1,8.31.14a.75.75,0,0,1,.88,0A21.81,21.81,0,0,1,17.5,17.07,8.6,8.6,0,0,1,8.75,25.5Zm0-23.79A20.63,20.63,0,0,0,1.5,17.07,7.1,7.1,0,0,0,8.75,24,7.1,7.1,0,0,0,16,17.07,20.63,20.63,0,0,0,8.75,1.71Z"/><rect class="cls-1" x="4.25" y="10.7" width="1.5" height="10.61" transform="translate(-9.85 8.22) rotate(-45)"/><rect class="cls-1" x="5" y="6.51" width="1.5" height="8.49" transform="translate(-5.92 7.21) rotate(-45)"/></g></g></svg>