<svg xmlns="http://www.w3.org/2000/svg" viewBox="0 0 22.85 22.85"><defs><style>.cls-1{fill:#e0c138;}</style></defs><title>hoja</title><g id="Capa_2" data-name="Capa 2"><g id="Capa_1-2" data-name="Capa 1"><g id="Capa_2-2" data-name="Capa 2"><g id="Capa_1-2-2" data-name="Capa 1-2"><path class="cls-1" d="M.22,22.64a.75.75,0,0,1,0-1.06L16.48,5.31a.75.75,0,0,1,1.06,1.06L1.28,22.64A.75.75,0,0,1,.22,22.64Z"/><rect class="cls-1" x="8.53" y="13.58" width="10.61" height="1.5"/><rect class="cls-1" x="12.77" y="9.34" width="8.49" height="1.5"/><path class="cls-1" d="M4.46,18.4A8.6,8.6,0,0,1,4.23,6.25,21.82,21.82,0,0,1,22.08.15a.74.74,0,0,1,.62.62,21.81,21.81,0,0,1-6.09,17.85A8.6,8.6,0,0,1,4.46,18.4ZM21.28,1.57a20.64,20.64,0,0,0-16,5.74,7.09,7.09,0,0,0,.23,10,7.1,7.1,0,0,0,10,.23A20.67,20.67,0,0,0,21.28,1.57Z"/><rect class="cls-1" x="7.77" y="3.72" width="1.5" height="10.61"/><rect class="cls-1" x="12.02" y="1.6" width="1.5" height="8.49"/></g></g></g></g></svg>