<svg xmlns="http://www.w3.org/2000/svg" viewBox="0 0 24.5 11.5"><defs><style>.cls-1{fill:#e0c138;}</style></defs><title>MESA</title><g id="Capa_2" data-name="Capa 2"><g id="Capa_1-2" data-name="Capa 1"><path class="cls-1" d="M16.75,6.5h-9A.76.76,0,0,1,7,5.75v-5A.76.76,0,0,1,7.75,0h9a.76.76,0,0,1,.75.75v5A.76.76,0,0,1,16.75,6.5ZM8.5,5H16V1.5H8.5Z"/><path class="cls-1" d="M16.75,4.5h-3a.75.75,0,0,1,0-1.5H16V1.5H8.5V3h2.39a.75.75,0,0,1,0,1.5H7.75A.76.76,0,0,1,7,3.75v-3A.76.76,0,0,1,7.75,0h9a.76.76,0,0,1,.75.75v3A.76.76,0,0,1,16.75,4.5Z"/><path class="cls-1" d="M20.75,11.5a.76.76,0,0,1-.75-.75V1.5H4.5v9.25a.75.75,0,0,1-1.5,0V.75A.76.76,0,0,1,3.75,0h17a.76.76,0,0,1,.75.75v10A.76.76,0,0,1,20.75,11.5Z"/><path class="cls-1" d="M23.75,1.5H.75A.76.76,0,0,1,0,.75.76.76,0,0,1,.75,0h23a.76.76,0,0,1,.75.75A.76.76,0,0,1,23.75,1.5Z"/></g></g></svg>