<svg xmlns="http://www.w3.org/2000/svg" viewBox="0 0 22.5 15.5"><defs><style>.cls-1{fill:#e0c138;}</style></defs><title>MICRO</title><g id="Capa_2" data-name="Capa 2"><g id="Capa_1-2" data-name="Capa 1"><path class="cls-1" d="M21.75,15.5H.75A.76.76,0,0,1,0,14.75V.75A.76.76,0,0,1,.75,0h21a.76.76,0,0,1,.75.75v14A.76.76,0,0,1,21.75,15.5ZM1.5,14H21V1.5H1.5Z"/><path class="cls-1" d="M16.75,15.5H.75A.76.76,0,0,1,0,14.75V.75A.76.76,0,0,1,.75,0h16a.76.76,0,0,1,.75.75v14A.76.76,0,0,1,16.75,15.5ZM1.5,14H16V1.5H1.5Z"/><path class="cls-1" d="M13.75,12.5h-10A.76.76,0,0,1,3,11.75v-8A.76.76,0,0,1,3.75,3h10a.76.76,0,0,1,.75.75v8A.76.76,0,0,1,13.75,12.5ZM4.5,11H13V4.5H4.5Z"/><path class="cls-1" d="M21.75,15.5h-5a.76.76,0,0,1-.75-.75V.75A.76.76,0,0,1,16.75,0h5a.76.76,0,0,1,.75.75v14A.76.76,0,0,1,21.75,15.5ZM17.5,14H21V1.5H17.5Z"/><rect class="cls-1" x="18.75" y="4.75" width="1" height="1"/><rect class="cls-1" x="18.75" y="7.25" width="1" height="1"/><rect class="cls-1" x="18.75" y="9.75" width="1" height="1"/></g></g></svg>