<svg xmlns="http://www.w3.org/2000/svg" viewBox="0 0 23.5 23.5"><defs><style>.cls-1{fill:#e0c138;}</style></defs><title>SALA</title><g id="Capa_2" data-name="Capa 2"><g id="Capa_1-2" data-name="Capa 1"><path class="cls-1" d="M19.75,23.5a.76.76,0,0,1-.75-.75v-2a.75.75,0,0,1,1.5,0v2A.76.76,0,0,1,19.75,23.5Z"/><path class="cls-1" d="M3.75,23.5A.76.76,0,0,1,3,22.75v-2a.75.75,0,0,1,1.5,0v2A.76.76,0,0,1,3.75,23.5Z"/><path class="cls-1" d="M17.75,15.5h-12A.76.76,0,0,1,5,14.75v-3.5A1.75,1.75,0,0,0,3.6,9.54.76.76,0,0,1,3,8.8a8.75,8.75,0,1,1,17.5-.05.82.82,0,0,1-.6.79,1.75,1.75,0,0,0-1.4,1.71v3.5A.76.76,0,0,1,17.75,15.5ZM6.5,14H17V11.25a3.25,3.25,0,0,1,2-3,7.25,7.25,0,0,0-14.46,0,3.25,3.25,0,0,1,2,3Z"/><path class="cls-1" d="M22.75,21.5H.75A.76.76,0,0,1,0,20.75v-9.5A3.26,3.26,0,0,1,3.25,8a2.81,2.81,0,0,1,.65.07,3.24,3.24,0,0,1,2.6,3.18V14H17V11.25a3.24,3.24,0,0,1,2.6-3.18A2.81,2.81,0,0,1,20.25,8a3.26,3.26,0,0,1,3.25,3.25v9.5A.76.76,0,0,1,22.75,21.5ZM1.5,20H22V11.25a1.76,1.76,0,0,0-2.1-1.71,1.75,1.75,0,0,0-1.4,1.71v3.5a.76.76,0,0,1-.75.75h-12A.76.76,0,0,1,5,14.75v-3.5a1.75,1.75,0,0,0-3.5,0Z"/></g></g></svg>