<svg xmlns="http://www.w3.org/2000/svg" viewBox="0 0 22.5 22.5"><defs><style>.cls-1{fill:#e0c138;}</style></defs><title>TINA</title><g id="Capa_2" data-name="Capa 2"><g id="Capa_1-2" data-name="Capa 1"><path class="cls-1" d="M13.75,21.5h-5A8.75,8.75,0,0,1,0,12.75.76.76,0,0,1,.75,12h21a.76.76,0,0,1,.75.75A8.75,8.75,0,0,1,13.75,21.5Zm-12.21-8A7.26,7.26,0,0,0,8.75,20h5A7.26,7.26,0,0,0,21,13.5Z"/><path class="cls-1" d="M21.75,13.5a.76.76,0,0,1-.75-.75v-5A6.25,6.25,0,0,0,14.75,1.5,2.25,2.25,0,0,0,12.5,3.75a.75.75,0,0,1-1.5,0A3.75,3.75,0,0,1,14.75,0,7.76,7.76,0,0,1,22.5,7.75v5A.76.76,0,0,1,21.75,13.5Z"/><path class="cls-1" d="M13.75,8.5h-4A1.76,1.76,0,0,1,8,6.75a3.75,3.75,0,0,1,7.5,0A1.76,1.76,0,0,1,13.75,8.5Zm-2-4A2.25,2.25,0,0,0,9.5,6.75.25.25,0,0,0,9.75,7h4A.25.25,0,0,0,14,6.75,2.25,2.25,0,0,0,11.75,4.5Z"/><path class="cls-1" d="M5.75,22.5A.76.76,0,0,1,5,21.75v-1a.75.75,0,0,1,1.5,0v1A.76.76,0,0,1,5.75,22.5Z"/><path class="cls-1" d="M16.75,22.5a.76.76,0,0,1-.75-.75v-1a.75.75,0,0,1,1.5,0v1A.76.76,0,0,1,16.75,22.5Z"/></g></g></svg>