<?xml version="1.0" encoding="utf-8"?>
<!-- Generator: Adobe Illustrator 24.0.0, SVG Export Plug-In . SVG Version: 6.00 Build 0)  -->
<svg version="1.1" id="Capa_1" xmlns="http://www.w3.org/2000/svg" xmlns:xlink="http://www.w3.org/1999/xlink" x="0px" y="0px"
	 viewBox="0 0 469.3 469.3" style="enable-background:new 0 0 469.3 469.3;" xml:space="preserve">
<style type="text/css">
	.st0{fill:#FFFFFF;}
</style>
<g>
	<g>
		<path class="st0" d="M438.8,186.3l-80.2-88.1c-15.9-15.9-41.7-15.9-57.7,0.1c-5.1,5.1-8.5,11.2-10.3,17.6c-16-12.2-39-11-53.7,3.7
			c-5.1,5.1-8.5,11.2-10.3,17.6c-16-12.2-39-11-53.7,3.7c-5,5-8.4,10.9-10.2,17.2l-37.8-37.8c-15.9-15.9-41.7-15.9-57.7,0.1
			c-15.9,15.9-15.9,41.7,0,57.6l145.2,145.2l-86.1,13.5c-23.3,3.3-40.8,23.6-40.8,47.1c0,17.6,14.4,32,32,32h201.2
			c31.3,0,60.8-12.2,83-34.4l33.6-33.6c22.1-22.1,34.3-51.6,34.3-82.9C469.3,236,458.5,208,438.8,186.3z M419.9,333l-33.6,33.6
			c-18.1,18.1-42.2,28.1-67.9,28.1H117.3c-5.9,0-10.7-4.8-10.7-10.7c0-13,9.7-24.1,22.7-26l107-16.8c4-0.6,7.2-3.4,8.5-7.2
			c1.2-3.8,0.2-8-2.6-10.8L82.2,163.1c-7.6-7.6-7.6-19.9,0.1-27.6c3.8-3.8,8.8-5.7,13.7-5.7s9.9,1.9,13.7,5.7l106.7,106.7
			c4.2,4.2,10.9,4.2,15.1,0c2.1-2.1,3.1-4.8,3.1-7.6s-1-5.5-3.1-7.6l-43.6-43.6c-7.6-7.6-7.6-19.9,0.1-27.6c7.6-7.6,19.9-7.6,27.5,0
			l43.6,43.6c4.2,4.2,10.9,4.2,15.1,0c2.1-2.1,3.1-4.8,3.1-7.6s-1-5.5-3.1-7.6l-22.3-22.3c-7.6-7.6-7.6-19.9,0.1-27.6
			c7.6-7.6,19.9-7.6,27.5,0l22.4,22.4c0,0,0,0,0,0l0,0c0,0,0,0,0,0c0,0,0,0,0,0h0c0,0,0,0,0,0c4.2,4,10.8,3.9,14.9-0.2
			c4.2-4.2,4.2-10.9,0-15.1l-0.9-0.9c-3.7-3.7-5.7-8.6-5.7-13.7s2-10,5.8-13.8c7.6-7.6,19.9-7.5,27.1-0.4l79.9,87.8
			c16.1,17.7,24.9,40.6,24.9,64.5C448,290.8,438,314.9,419.9,333z"/>
	</g>
</g>
<g>
	<g>
		<path class="st0" d="M183.4,109.9C167.9,75.6,133.5,53.3,96,53.3c-52.9,0-96,43.1-96,96c0,37.5,22.2,71.9,56.6,87.4
			c1.4,0.6,2.9,0.9,4.4,0.9c4.1,0,7.9-2.3,9.7-6.3c2.4-5.4,0-11.7-5.3-14.1c-26.8-12.1-44.1-38.8-44.1-67.9
			c0-41.2,33.5-74.7,74.7-74.7c29.2,0,55.9,17.3,67.9,44.1c2.4,5.4,8.7,7.8,14.1,5.3C183.4,121.6,185.8,115.3,183.4,109.9z"/>
	</g>
</g>
</svg>
