<svg id="Modo_de_aislamiento" data-name="Modo de aislamiento" xmlns="http://www.w3.org/2000/svg" viewBox="0 0 46.61 50.39"><defs><style>.cls-1{fill:#322a26;}</style></defs><title>E_logo</title><path class="cls-1" d="M134.05,12.28v50.4h46.61V12.28Zm44.28,48.23H136.39V14.45h41.94Z" transform="translate(-134.05 -12.28)"/><polygon class="cls-1" points="33.53 29.02 32.8 29.02 28.57 36.14 21.55 36.14 21.55 25.47 26.52 25.47 29.61 29.3 30.34 29.3 30.34 20.99 29.61 20.99 26.52 24.78 21.55 24.78 21.55 14.26 28.22 14.26 32.46 21.38 33.19 21.38 33.19 13.56 13.08 13.56 13.08 14.26 15.58 16.06 15.58 34.3 13.08 36.14 13.08 36.83 33.53 36.83 33.53 29.02"/></svg>