<svg xmlns="http://www.w3.org/2000/svg" viewBox="0 0 31.05 28.76"><defs><style>.cls-1{fill:#322a26;}</style></defs><title>Phone</title><g id="Capa_2" data-name="Capa 2"><g id="Capa_1-2" data-name="Capa 1"><path class="cls-1" d="M.88,3.23S2.58.26,4,.09,7.14-.08,7.62.82,10.26,7,10.26,7a2.07,2.07,0,0,1-.2,1.79,17.76,17.76,0,0,1-1.84,2.15,1.57,1.57,0,0,0,0,1.87,34,34,0,0,0,4.08,5c2.27,2.27,6.63,3.89,6.63,3.89a1.3,1.3,0,0,0,1-.31c.4-.39,2.55-3.09,2.55-3.09a1.53,1.53,0,0,1,1.85-.37c1.14.53,6.12,3,6.12,3A1.07,1.07,0,0,1,31.05,22c0,.88-.36,3-1.08,3.75s-2.86,3-6,3-10.8-2.6-14.85-6.65S1.42,14,.57,10.21-.17,4.77.88,3.23Z"/></g></g></svg>