<svg xmlns="http://www.w3.org/2000/svg" viewBox="0 0 39.21 39.21"><defs><style>.cls-1{fill:none;stroke:#322a26;stroke-miterlimit:10;stroke-width:2px;}.cls-2{fill:#322a26;}</style></defs><title>WA</title><g id="Capa_2" data-name="Capa 2"><g id="Capa_1-2" data-name="Capa 1"><path class="cls-1" d="M9.1,35l.66.41A18.63,18.63,0,1,0,5,31l.46.59-1,4.93Z"/><path class="cls-2" d="M8.57,11.21S9.85,9,10.9,8.84s2.39-.13,2.75.55,2,4.66,2,4.66a1.54,1.54,0,0,1-.15,1.34A13.16,13.16,0,0,1,14.1,17a1.19,1.19,0,0,0,0,1.41,26,26,0,0,0,3.08,3.77,16.79,16.79,0,0,0,5,2.93,1,1,0,0,0,.77-.23c.3-.3,1.93-2.33,1.93-2.33a1.14,1.14,0,0,1,1.38-.28c.87.4,4.61,2.26,4.61,2.26a.82.82,0,0,1,.44.83,5.27,5.27,0,0,1-.81,2.83,6.57,6.57,0,0,1-4.56,2.23c-2.4,0-8.13-2-11.19-5s-5.76-6.15-6.4-9S7.78,12.37,8.57,11.21Z"/></g></g></svg>